<mxfile host="app.diagrams.net" modified="2023-05-12T19:15:49.591Z" agent="Mozilla/5.0 (X11; Linux x86_64; rv:109.0) Gecko/20100101 Firefox/111.0" etag="Kl9QWTMpl3Ri_ShxyK7m" version="21.2.4" type="device">
  <diagram name="Page-1" id="V4vIl1N3Om9SUXlx9PtO">
    <mxGraphModel dx="954" dy="578" grid="1" gridSize="10" guides="1" tooltips="1" connect="1" arrows="1" fold="1" page="1" pageScale="1" pageWidth="850" pageHeight="1100" math="0" shadow="0">
      <root>
        <mxCell id="0" />
        <mxCell id="1" parent="0" />
        <mxCell id="mJwdU4CAtXg_ed1Rz9ej-1" style="edgeStyle=orthogonalEdgeStyle;rounded=0;orthogonalLoop=1;jettySize=auto;html=1;entryX=0;entryY=0.5;entryDx=0;entryDy=0;" parent="1" source="mJwdU4CAtXg_ed1Rz9ej-3" target="mJwdU4CAtXg_ed1Rz9ej-7" edge="1">
          <mxGeometry relative="1" as="geometry">
            <Array as="points">
              <mxPoint x="290" y="250" />
              <mxPoint x="290" y="330" />
            </Array>
          </mxGeometry>
        </mxCell>
        <mxCell id="mJwdU4CAtXg_ed1Rz9ej-2" style="edgeStyle=orthogonalEdgeStyle;rounded=0;orthogonalLoop=1;jettySize=auto;html=1;entryX=0;entryY=0.5;entryDx=0;entryDy=0;" parent="1" source="mJwdU4CAtXg_ed1Rz9ej-3" target="mJwdU4CAtXg_ed1Rz9ej-5" edge="1">
          <mxGeometry relative="1" as="geometry">
            <Array as="points">
              <mxPoint x="290" y="250" />
              <mxPoint x="290" y="180" />
            </Array>
          </mxGeometry>
        </mxCell>
        <mxCell id="mJwdU4CAtXg_ed1Rz9ej-3" value="Source" style="ellipse;whiteSpace=wrap;html=1;aspect=fixed;fillColor=#ffe6cc;strokeColor=#d79b00;" parent="1" vertex="1">
          <mxGeometry x="170" y="210" width="80" height="80" as="geometry" />
        </mxCell>
        <mxCell id="mJwdU4CAtXg_ed1Rz9ej-4" style="edgeStyle=orthogonalEdgeStyle;rounded=0;orthogonalLoop=1;jettySize=auto;html=1;entryX=0.5;entryY=0;entryDx=0;entryDy=0;" parent="1" source="mJwdU4CAtXg_ed1Rz9ej-5" target="mJwdU4CAtXg_ed1Rz9ej-11" edge="1">
          <mxGeometry relative="1" as="geometry" />
        </mxCell>
        <mxCell id="mJwdU4CAtXg_ed1Rz9ej-5" value="Load stations data" style="ellipse;whiteSpace=wrap;html=1;aspect=fixed;" parent="1" vertex="1">
          <mxGeometry x="360" y="140" width="80" height="80" as="geometry" />
        </mxCell>
        <mxCell id="mJwdU4CAtXg_ed1Rz9ej-17" style="edgeStyle=orthogonalEdgeStyle;rounded=0;orthogonalLoop=1;jettySize=auto;html=1;entryX=0.5;entryY=1;entryDx=0;entryDy=0;" parent="1" source="mJwdU4CAtXg_ed1Rz9ej-7" target="mJwdU4CAtXg_ed1Rz9ej-11" edge="1">
          <mxGeometry relative="1" as="geometry" />
        </mxCell>
        <mxCell id="mJwdU4CAtXg_ed1Rz9ej-7" value="Load trips data" style="ellipse;whiteSpace=wrap;html=1;aspect=fixed;" parent="1" vertex="1">
          <mxGeometry x="360" y="290" width="80" height="80" as="geometry" />
        </mxCell>
        <mxCell id="mJwdU4CAtXg_ed1Rz9ej-10" value="" style="edgeStyle=orthogonalEdgeStyle;rounded=0;orthogonalLoop=1;jettySize=auto;html=1;" parent="1" source="mJwdU4CAtXg_ed1Rz9ej-11" target="mJwdU4CAtXg_ed1Rz9ej-13" edge="1">
          <mxGeometry relative="1" as="geometry" />
        </mxCell>
        <mxCell id="mJwdU4CAtXg_ed1Rz9ej-11" value="Filter by city = &#39;montreal&#39;" style="ellipse;whiteSpace=wrap;html=1;aspect=fixed;" parent="1" vertex="1">
          <mxGeometry x="470" y="220" width="80" height="80" as="geometry" />
        </mxCell>
        <mxCell id="mJwdU4CAtXg_ed1Rz9ej-12" value="" style="edgeStyle=orthogonalEdgeStyle;rounded=0;orthogonalLoop=1;jettySize=auto;html=1;" parent="1" source="mJwdU4CAtXg_ed1Rz9ej-13" target="mJwdU4CAtXg_ed1Rz9ej-16" edge="1">
          <mxGeometry relative="1" as="geometry" />
        </mxCell>
        <mxCell id="mJwdU4CAtXg_ed1Rz9ej-13" value="Join by year and code" style="ellipse;whiteSpace=wrap;html=1;aspect=fixed;" parent="1" vertex="1">
          <mxGeometry x="600" y="220" width="80" height="80" as="geometry" />
        </mxCell>
        <mxCell id="mJwdU4CAtXg_ed1Rz9ej-14" value="Sink" style="ellipse;whiteSpace=wrap;html=1;aspect=fixed;fillColor=#d5e8d4;strokeColor=#82b366;" parent="1" vertex="1">
          <mxGeometry x="960" y="220" width="80" height="80" as="geometry" />
        </mxCell>
        <mxCell id="mJwdU4CAtXg_ed1Rz9ej-19" value="" style="edgeStyle=orthogonalEdgeStyle;rounded=0;orthogonalLoop=1;jettySize=auto;html=1;" parent="1" source="mJwdU4CAtXg_ed1Rz9ej-16" target="mJwdU4CAtXg_ed1Rz9ej-18" edge="1">
          <mxGeometry relative="1" as="geometry" />
        </mxCell>
        <mxCell id="mJwdU4CAtXg_ed1Rz9ej-16" value="Calculate distance from start to end station" style="ellipse;whiteSpace=wrap;html=1;aspect=fixed;" parent="1" vertex="1">
          <mxGeometry x="720" y="220" width="80" height="80" as="geometry" />
        </mxCell>
        <mxCell id="mJwdU4CAtXg_ed1Rz9ej-20" value="" style="edgeStyle=orthogonalEdgeStyle;rounded=0;orthogonalLoop=1;jettySize=auto;html=1;" parent="1" source="mJwdU4CAtXg_ed1Rz9ej-18" target="mJwdU4CAtXg_ed1Rz9ej-14" edge="1">
          <mxGeometry relative="1" as="geometry" />
        </mxCell>
        <mxCell id="mJwdU4CAtXg_ed1Rz9ej-18" value="Filter distance &amp;gt; 6km" style="ellipse;whiteSpace=wrap;html=1;aspect=fixed;" parent="1" vertex="1">
          <mxGeometry x="840" y="220" width="80" height="80" as="geometry" />
        </mxCell>
      </root>
    </mxGraphModel>
  </diagram>
</mxfile>
